<svg width="24" height="26" viewBox="0 0 24 26" fill="none" xmlns="http://www.w3.org/2000/svg">
<path d="M12 2.9231C6.67 7.6831 4 11.7945 4 15.2677C4 20.4776 7.8 23.8462 12 23.8462C16.2 23.8462 20 20.4776 20 15.2677C20 11.7945 17.33 7.6831 12 2.9231ZM7.83 15.4769C8.2 15.4769 8.5 15.7489 8.57 16.1256C8.98 18.448 10.85 19.2431 12.21 19.128C12.64 19.1071 13 19.4628 13 19.9126C13 20.3311 12.68 20.6763 12.28 20.6972C10.15 20.8332 7.66 19.5569 7.09 16.3871C7.07262 16.2749 7.07874 16.1602 7.10792 16.0507C7.13711 15.9413 7.18867 15.8398 7.25905 15.7532C7.32942 15.6666 7.41692 15.5971 7.5155 15.5494C7.61408 15.5017 7.72139 15.477 7.83 15.4769Z" fill="#4499E7"/>
</svg>
