<svg width="20" height="30" viewBox="0 0 20 30" fill="none" xmlns="http://www.w3.org/2000/svg">
<path d="M12.9962 5.62418C14.6522 5.62418 15.9957 4.36459 15.9957 2.81209C15.9957 1.25958 14.6522 0 12.9962 0C11.3403 0 9.99675 1.25958 9.99675 2.81209C9.99675 4.36459 11.3403 5.62418 12.9962 5.62418ZM18.9015 14.3592L17.4455 13.6679L16.8393 11.9455C15.9207 9.33262 13.3587 7.50476 10.4529 7.4989C8.2033 7.49304 6.95976 8.09061 4.62266 8.97525C3.27288 9.48494 2.16682 10.4516 1.51693 11.6819L1.09825 12.4786C0.610834 13.4043 1.00452 14.5291 1.9856 14.9919C2.96044 15.4548 4.14774 15.0798 4.6414 14.1542L5.06008 13.3574C5.2788 12.9473 5.64123 12.6251 6.09116 12.4552L7.76588 11.8225L6.81604 15.3786C6.49109 16.5972 6.84103 17.8919 7.74713 18.8234L11.4902 22.6549C11.9402 23.1177 12.2589 23.6743 12.4213 24.2777L13.5649 28.572C13.8336 29.5738 14.9209 30.1889 15.9895 29.937C17.0581 29.6851 17.7142 28.6657 17.4455 27.6639L16.0582 22.4498C15.8958 21.8464 15.5771 21.284 15.1271 20.827L12.2839 17.9153L13.3587 13.8905L13.7024 14.8572C14.0336 15.8004 14.7459 16.5796 15.6833 17.0248L17.1393 17.7162C18.1141 18.179 19.3014 17.804 19.7951 16.8784C20.2763 15.9586 19.8826 14.822 18.9015 14.3592ZM4.59766 22.6022C4.39769 23.0767 4.09775 23.5044 3.71031 23.8617L0.585839 26.7969C-0.19528 27.5292 -0.19528 28.7184 0.585839 29.4508C1.36696 30.1831 2.62924 30.1831 3.41036 29.4508L7.12223 25.9708C7.50342 25.6134 7.80337 25.1858 8.00959 24.7112L8.85319 22.731C5.39753 19.1984 6.43485 20.2822 5.89119 19.585L4.59766 22.6022Z" fill="#EC4D37"/>
</svg>
