<svg xmlns="http://www.w3.org/2000/svg" xmlns:xlink="http://www.w3.org/1999/xlink" version="1.1" width="256" height="256" viewBox="0 0 256 256" xml:space="preserve">
<desc>Created with Fabric.js 1.7.22</desc>
<defs>
</defs>
<g transform="translate(128 128) scale(0.72 0.72)" style="">
	<g style="stroke: none; stroke-width: 0; stroke-dasharray: none; stroke-linecap: butt; stroke-linejoin: miter; stroke-miterlimit: 10; fill: none; fill-rule: nonzero; opacity: 1;" transform="translate(-175.05 -175.05000000000004) scale(3.89 3.89)" >
	<path d="M 89 39.663 h -5.78 v -7.767 c 0 -0.552 -0.447 -1 -1 -1 h -7.673 v -5.769 c 0 -0.552 -0.447 -1 -1 -1 h -8.674 c -0.553 0 -1 0.448 -1 1 v 14.536 H 26.127 V 25.127 c 0 -0.552 -0.448 -1 -1 -1 h -8.673 c -0.552 0 -1 0.448 -1 1 v 5.769 H 7.78 c -0.552 0 -1 0.448 -1 1 v 7.767 H 1 c -0.552 0 -1 0.448 -1 1 v 8.674 c 0 0.553 0.448 1 1 1 h 5.78 v 7.767 c 0 0.553 0.448 1 1 1 h 7.673 v 5.77 c 0 0.553 0.448 1 1 1 h 8.673 c 0.552 0 1 -0.447 1 -1 V 50.337 h 37.746 v 14.536 c 0 0.553 0.447 1 1 1 h 8.674 c 0.553 0 1 -0.447 1 -1 v -5.77 h 7.673 c 0.553 0 1 -0.447 1 -1 v -7.767 H 89 c 0.553 0 1 -0.447 1 -1 v -8.674 C 90 40.111 89.553 39.663 89 39.663 z" style="stroke: none; stroke-width: 1; stroke-dasharray: none; stroke-linecap: butt; stroke-linejoin: miter; stroke-miterlimit: 10; fill: rgb(0,0,0); fill-rule: nonzero; opacity: 1;" transform=" matrix(1 0 0 1 0 0) " stroke-linecap="round" />
</g>
</g>
</svg>