<svg width="30" height="30" viewBox="0 0 30 30" fill="none" xmlns="http://www.w3.org/2000/svg">
<path d="M10.8842 28.05C10.6923 27.969 10.5329 27.8264 10.4311 27.6448C10.3292 27.4632 10.2907 27.2528 10.3217 27.0468L12.0279 15.9375H7.49982C7.35627 15.9413 7.21375 15.9122 7.08325 15.8522C6.95275 15.7923 6.83778 15.7031 6.74718 15.5917C6.65659 15.4803 6.59281 15.3495 6.56076 15.2095C6.52871 15.0696 6.52924 14.9241 6.56232 14.7843L9.37482 2.59684C9.42431 2.3871 9.54455 2.2008 9.71531 2.06933C9.88606 1.93785 10.0969 1.86921 10.3123 1.87497H19.6873C19.8274 1.87449 19.9658 1.9054 20.0923 1.96543C20.2189 2.02546 20.3303 2.11307 20.4186 2.22184C20.5081 2.33184 20.5714 2.46071 20.6039 2.59873C20.6364 2.73676 20.6371 2.88036 20.6061 3.01872L18.9842 10.3125H23.4373C23.613 10.3121 23.7853 10.3612 23.9345 10.454C24.0837 10.5468 24.2038 10.6797 24.2811 10.8375C24.3483 10.9889 24.3741 11.1555 24.356 11.3201C24.3379 11.4848 24.2764 11.6418 24.178 11.775L11.9904 27.7125C11.9081 27.8346 11.7981 27.9355 11.6694 28.0072C11.5407 28.0789 11.397 28.1192 11.2498 28.125C11.1244 28.1226 11.0004 28.0972 10.8842 28.05Z" fill="#FFD200"/>
</svg>
