<svg width="30" height="30" viewBox="0 0 30 30" fill="none" xmlns="http://www.w3.org/2000/svg">
<path fill-rule="evenodd" clip-rule="evenodd" d="M8.19656 25.4746L1.02565 22.7826L0.11206 24.9908C0.11206 24.9908 -0.761889 28.5637 2.37149 29.7403C5.50865 30.9206 7.31506 27.694 7.31506 27.694L8.19656 25.4746Z" fill="#55AF45"/>
<path fill-rule="evenodd" clip-rule="evenodd" d="M13.442 5.93616C10.3426 4.6956 5.99172 7.41581 4.48732 10.8438C3.86819 12.2557 3.58694 13.7786 3.35288 15.2809C3.24152 15.9981 3.16224 16.7342 3.02067 17.4495C2.83946 18.3475 2.56954 19.2115 2.3015 20.0831C1.92965 21.2936 2.33925 21.4969 3.46991 21.704L7.43005 23.1949C7.834 23.3869 8.623 23.8707 9.02883 23.4189C9.38747 23.0142 9.31574 22.2762 9.55547 21.7962C9.86503 21.1731 10.2123 20.5387 10.5955 19.9514C11.443 18.6374 13.0513 17.6773 14.1404 16.544C15.49 15.1359 16.2356 13.7241 16.6471 11.8566C17.1945 9.36984 15.9355 6.932 13.442 5.93616V5.93616Z" fill="#55AF45"/>
<path fill-rule="evenodd" clip-rule="evenodd" d="M16.7826 17.4119L23.6817 20.1283C23.6817 20.1283 22.2584 25.6873 18.0453 24.0703C13.8323 22.4494 16.7826 17.4119 16.7826 17.4119V17.4119Z" fill="#55AF45"/>
<path fill-rule="evenodd" clip-rule="evenodd" d="M26.623 0.333844C29.5676 1.42569 30.753 6.05287 29.5129 9.38301C29.0013 10.7516 28.1859 11.979 27.3497 13.1744C26.9495 13.7429 26.5154 14.3001 26.136 14.8893C25.6698 15.6235 25.2809 16.3972 24.8883 17.169C24.339 18.242 23.9219 18.1197 23.0083 17.5568L19.2992 16.1016C18.8971 15.9812 18.0364 15.8155 18.059 15.2526C18.0798 14.7444 18.6178 14.2737 18.7725 13.7956C18.9726 13.1687 19.1557 12.5061 19.2803 11.8604C19.5672 10.4146 19.0991 8.73355 19.1066 7.2652C19.1066 5.44106 19.5351 3.98966 20.4883 2.43659C21.7662 0.354551 24.2484 -0.541518 26.623 0.333844V0.333844Z" fill="#55AF45"/>
</svg>
