<svg width="24" height="24" viewBox="0 0 24 24" fill="none" xmlns="http://www.w3.org/2000/svg">
<g clip-path="url(#clip0_403:310)">
<path d="M21 3.23403H19.7822C20.5519 4.50325 21 5.97218 21 7.54255C21 12.294 16.9627 16.1596 12 16.1596C7.03734 16.1596 3 12.294 3 7.54255C3 5.97218 3.44813 4.50325 4.21781 3.23403H3C1.34578 3.23403 0 4.52255 0 6.10638V20.4681C0 22.0519 1.34578 23.3404 3 23.3404H21C22.6542 23.3404 24 22.0519 24 20.4681V6.10638C24 4.52255 22.6542 3.23403 21 3.23403ZM12 14.7234C16.1423 14.7234 19.5 11.5086 19.5 7.54255C19.5 3.57647 16.1423 0.361694 12 0.361694C7.85766 0.361694 4.5 3.57647 4.5 7.54255C4.5 11.5086 7.85766 14.7234 12 14.7234ZM11.9859 7.90428L13.56 4.38746C13.7241 4.02079 14.1666 3.85249 14.5458 4.01002C14.9264 4.1662 15.1027 4.58852 14.94 4.9525L13.3617 8.47785C13.6748 8.79919 13.875 9.22331 13.875 9.6968C13.875 10.6882 13.0355 11.492 12 11.492C10.9645 11.492 10.125 10.6882 10.125 9.6968C10.125 8.71033 10.9575 7.91191 11.9859 7.90428Z" fill="#F7AE64"/>
</g>
<defs>
<clipPath id="clip0_403:310">
<rect width="24" height="22.9787" fill="white" transform="translate(0 0.361694)"/>
</clipPath>
</defs>
</svg>
