<svg width="129" height="60" viewBox="0 0 129 60" fill="none" xmlns="http://www.w3.org/2000/svg">
<path fill-rule="evenodd" clip-rule="evenodd" d="M0 33L3.44 30C6.02 27 12.04 19.5 18.06 13.5C24.94 9 30.96 4.5 36.98 9C43 15 49.02 31.5 55.04 31.5C61.06 33 67.94 19.5 73.96 12C79.98 4.5 86 1.5 92.02 4.5C98.04 6 104.06 13.5 110.94 13.5C116.96 13.5 122.98 6 125.56 3L129 0V60H125.56C122.98 60 116.96 60 110.94 60C104.06 60 98.04 60 92.02 60C86 60 79.98 60 73.96 60C67.94 60 61.06 60 55.04 60C49.02 60 43 60 36.98 60C30.96 60 24.94 60 18.06 60C12.04 60 6.02 60 3.44 60H0V33Z" fill="#F6AE64"/>
</svg>
