<svg width="35" height="42" viewBox="0 0 35 42" fill="none" xmlns="http://www.w3.org/2000/svg">
<path d="M10.5977 13.7983H11.8734C12.2799 13.7983 12.6094 13.4688 12.6094 13.0624C12.6094 12.656 12.2799 12.3265 11.8734 12.3265H10.5977C10.1912 12.3265 9.86172 12.656 9.86172 13.0624C9.86172 13.4688 10.1912 13.7983 10.5977 13.7983Z" fill="black" fill-opacity="0.7" stroke="black" stroke-width="0.3"/>
<path d="M6.12844 23.9796C5.97953 23.9616 5.97952 23.9616 5.97951 23.9617L5.97947 23.962L5.9793 23.9634L5.97863 23.969L5.97599 23.9908L5.96567 24.076L5.9265 24.3992L5.78672 25.553L5.36253 29.0542L4.93835 32.5557L4.79856 33.7098L4.7594 34.0333L4.74908 34.1186L4.74643 34.1405L4.74575 34.1462L4.74556 34.1477L4.74548 34.1484C4.74544 34.1487 4.74469 34.1575 4.74445 34.1659V36.3733C4.74445 37.1061 5.29276 37.7253 6.02022 37.8139L9.20561 38.202C10.1331 38.3151 11.023 38.5916 11.8511 39.0243L15.2577 40.8043C15.6906 41.0304 16.1773 41.1499 16.6657 41.1499H18.3275C18.8159 41.1499 19.3026 41.0304 19.7355 40.8043L23.1422 39.0243C23.9703 38.5916 24.8601 38.315 25.7877 38.202L28.9731 37.8139L28.9549 37.665L28.9731 37.8139C29.7004 37.7252 30.2488 37.1061 30.2488 36.3733V34.1659C30.2488 33.7595 29.9193 33.43 29.5129 33.43H24.4347L26.455 30.1366C26.6676 29.7901 26.5591 29.3369 26.2126 29.1244C25.866 28.9118 25.4129 29.0205 25.2004 29.3669L25.2004 29.3669L22.708 33.43H12.2854L9.79294 29.3669L9.79293 29.3669C9.58041 29.0205 9.12737 28.9118 8.78077 29.1244C8.4343 29.337 8.32578 29.7901 8.53831 30.1366L8.66617 30.0581L8.53831 30.1366L10.5586 33.43H6.31129L7.44078 24.1392C7.51406 23.5362 7.51693 22.9245 7.44906 22.321L6.84984 16.9832C6.73038 15.919 6.40063 14.9074 5.86998 13.9772L5.35186 13.069L5.59174 13.2067C6.26626 13.5938 7.03372 13.7984 7.81148 13.7984C8.21792 13.7984 8.54742 13.4689 8.54742 13.0624C8.54742 12.656 8.21792 12.3265 7.81148 12.3265C7.29058 12.3265 6.77624 12.1894 6.32443 11.9301L3.91249 10.5457L3.1374 9.187L3.00711 9.26133L3.1374 9.187C2.60407 8.25214 2.32211 7.18893 2.32211 6.11258V2.92695C2.32211 2.59347 2.5937 2.32187 2.92719 2.32187H32.0665C32.4 2.32187 32.6716 2.59347 32.6716 2.92695V6.11258C32.6716 7.18885 32.3896 8.25206 31.8563 9.187L31.0812 10.5457L28.6692 11.9301C28.2174 12.1894 27.7032 12.3265 27.1822 12.3265H23.1201C22.7136 12.3265 22.3841 12.656 22.3841 13.0624C22.3841 13.4689 22.7136 13.7984 23.1201 13.7984H27.1822C27.96 13.7984 28.7274 13.5938 29.4019 13.2067L29.6417 13.0691L29.1234 13.9772L29.1234 13.9772C28.5927 14.9075 28.263 15.919 28.1435 16.9832L27.5443 22.3211C27.4765 22.9245 27.4793 23.5362 27.5526 24.1393L27.7015 24.1212L27.5526 24.1393L28.4342 31.3915C28.4833 31.7951 28.8499 32.0821 29.2536 32.0333L29.2537 32.0333C29.6571 31.9842 29.9445 31.6174 29.8954 31.2139L29.0137 23.9616C28.9542 23.472 28.9519 22.9753 29.007 22.4853L29.6062 17.1474C29.7032 16.2831 29.9708 15.4622 30.4018 14.7067L30.2716 14.6323L30.4019 14.7067L33.1346 9.91644C33.7945 8.75966 34.1433 7.44451 34.1433 6.11273V2.92695C34.1433 1.78161 33.2117 0.85 32.0663 0.85H31.9163H2.92695C1.78161 0.85 0.85 1.78161 0.85 2.92695V6.11258C0.85 7.44435 1.19875 8.75958 1.8587 9.91629L4.59143 14.7065C5.02242 15.462 5.29009 16.283 5.38711 17.1474L5.98633 22.4852C6.04136 22.9752 6.03907 23.472 5.97953 23.9615L5.97953 23.9616L6.12844 23.9796ZM11.8789 34.9019H23.1144C23.1159 34.9019 23.1176 34.902 23.1194 34.902C23.1211 34.902 23.1228 34.9019 23.1243 34.9019H28.777V36.3551L25.6097 36.741C24.5059 36.8756 23.4463 37.2049 22.4608 37.7198L19.0541 39.4998C18.8309 39.6164 18.5795 39.6781 18.3277 39.6781H16.6659C16.414 39.6781 16.1626 39.6164 15.9395 39.4998L12.5328 37.7198C11.5473 37.2049 10.4877 36.8756 9.38377 36.741L6.21648 36.3551V34.9019H11.8691C11.8706 34.9019 11.8723 34.902 11.874 34.902C11.8757 34.902 11.8774 34.9019 11.8789 34.9019ZM23.1335 34.9013L23.131 34.9015C23.1321 34.9014 23.1331 34.9013 23.1338 34.9013L23.1335 34.9013ZM6.19835 36.3529C6.1984 36.3529 6.19845 36.3529 6.19849 36.3529L6.19838 36.3529L6.19589 36.3733L6.19835 36.3529Z" fill="black" fill-opacity="0.7" stroke="black" stroke-width="0.3"/>
<path d="M24.9207 22.4478L24.9207 22.4478C24.4872 23.0142 23.8034 23.352 23.0902 23.352H19.9809C19.4736 23.352 18.9736 23.1814 18.5721 22.8714L18.2324 22.609V25.6728L19.2842 26.4852C19.3955 26.5712 19.5347 26.6187 19.6754 26.6187H22.4023C22.6 26.6187 22.7906 26.5246 22.9107 26.3676L23.8892 25.089L23.8892 25.089C24.1362 24.7662 24.5982 24.7048 24.9208 24.9518C25.2436 25.1988 25.3051 25.6608 25.058 25.9835L24.0796 27.2621C23.6825 27.7812 23.0559 28.0906 22.4023 28.0906H19.6754C19.2106 28.0906 18.7525 27.9343 18.3846 27.6503L18.3846 27.6503L18.2323 27.5327V29.1649C18.2323 29.5714 17.9028 29.9009 17.4964 29.9009C17.09 29.9009 16.7605 29.5714 16.7605 29.1649V27.5327L16.6082 27.6502C16.2403 27.9343 15.7822 28.0906 15.3174 28.0906H12.5905C11.9369 28.0906 11.3103 27.7812 10.9132 27.2621L9.93479 25.9835C9.68772 25.6608 9.74912 25.1989 10.0719 24.9519C10.3946 24.7046 10.8566 24.7662 11.1036 25.089L11.1036 25.089L12.0821 26.3676C12.0821 26.3676 12.0821 26.3676 12.0821 26.3676C12.2023 26.5246 12.3928 26.6187 12.5905 26.6187H15.3174C15.458 26.6187 15.5973 26.5712 15.7087 26.4852C15.7087 26.4852 15.7087 26.4852 15.7087 26.4852L16.7605 25.673V22.6093L16.4207 22.8716C16.4207 22.8716 16.4207 22.8716 16.4207 22.8716C16.0193 23.1817 15.5192 23.3522 15.012 23.3522H11.9027C11.1895 23.3522 10.5057 23.0144 10.0723 22.4481L10.0723 22.448L8.95665 20.9901L8.95664 20.9901C8.70958 20.6673 8.771 20.2054 9.09384 19.9584C9.41662 19.7112 9.87856 19.7728 10.1255 20.0956L24.9207 22.4478ZM24.9207 22.4478L26.0363 20.9899M24.9207 22.4478L26.0363 20.9899M10.072 15.3169C9.7492 15.5639 9.68779 16.0258 9.93484 16.3486C9.93485 16.3486 9.93485 16.3486 9.93485 16.3486L10.9133 17.6273L10.1632 15.436M10.072 15.3169L10.1632 15.436M10.072 15.3169C10.072 15.3169 10.072 15.3169 10.072 15.317L10.1632 15.436M10.072 15.3169C10.3948 15.0697 10.8568 15.1313 11.1037 15.4541M10.1632 15.436C10.4201 15.2392 10.788 15.2882 10.9846 15.5452M11.1037 15.4541L11.1037 15.4541L10.9846 15.5452M11.1037 15.4541L12.0822 16.7328M11.1037 15.4541L10.9846 15.5452M10.9846 15.5452L12.0822 16.7328M12.0822 16.7328L11.963 16.8239L12.0822 16.7328L12.0822 16.7328ZM12.0822 16.7328C12.2023 16.8897 12.3929 16.9838 12.5905 16.9838H15.3175C15.4581 16.9838 15.5975 16.9363 15.7088 16.8504L15.7088 16.8504L16.7605 16.0382M12.0822 16.7328L15.8005 16.9691L16.9105 16.1119M16.7605 16.0382V16.1119H16.9105M16.7605 16.0382L16.8189 15.9932L16.9105 16.1119M16.7605 16.0382V13.8433C16.7605 13.4369 17.09 13.1074 17.4965 13.1074C17.9029 13.1074 18.2324 13.4369 18.2324 13.8433V16.0382M16.9105 16.1119V13.8433C16.9105 13.5197 17.1729 13.2574 17.4965 13.2574C17.8201 13.2574 18.0824 13.5197 18.0824 13.8433V16.1119M18.0824 16.1119L18.1741 15.9932L18.2324 16.0382M18.0824 16.1119H18.2324V16.0382M18.0824 16.1119L18.2324 16.0382M26.0363 20.9899C26.2834 20.6671 26.2219 20.2052 25.8991 19.9582L26.0363 20.9899ZM11.2411 21.5534L10.1255 20.0956L10.9133 17.6273C11.3104 18.1463 11.937 18.4558 12.5905 18.4558H15.3175C15.7823 18.4558 16.2404 18.2996 16.6083 18.0155L16.7605 17.8979V20.7495L15.5212 21.7065C15.3763 21.8184 15.1952 21.8802 15.0121 21.8802H11.9027C11.6454 21.8802 11.3976 21.7579 11.2411 21.5535C11.2411 21.5535 11.2411 21.5535 11.2411 21.5534ZM18.0825 17.782V17.5924L18.2325 17.7083V17.8978L18.0825 17.782ZM24.0797 17.6272C24.0798 17.6272 24.0798 17.6272 24.0798 17.6272L23.9606 17.536L24.0797 17.6272ZM23.03 16.8238L22.9109 16.7327C22.9109 16.7327 22.9109 16.7327 22.9109 16.7327L23.03 16.8238ZM19.2843 16.8503C19.2843 16.8503 19.2843 16.8503 19.2843 16.8503L19.1926 16.9691L19.2843 16.8503ZM18.2325 20.7493L18.1742 20.7043L18.0825 20.823H18.2325V20.7493ZM16.7605 17.7084L16.9105 17.5926V17.7821L16.7605 17.7084Z" fill="black" fill-opacity="0.7" stroke="black" stroke-width="0.3"/>
<path d="M17.4966 8.15476C17.903 8.15476 18.2325 7.82526 18.2325 7.41882V4.78015C18.2325 4.37371 17.903 4.04421 17.4966 4.04421C17.0901 4.04421 16.7606 4.37371 16.7606 4.78015V7.41882C16.7606 7.82526 17.0901 8.15476 17.4966 8.15476Z" fill="black" fill-opacity="0.7" stroke="black" stroke-width="0.3"/>
</svg>
