<svg width="40" height="40" viewBox="0 0 40 40" fill="none" xmlns="http://www.w3.org/2000/svg">
<path d="M14.095 22.0425C17.8695 21.068 22.044 22.046 25 25H26.6665L24.1665 10L22.4965 9.1665C21.684 11.1295 20.1495 12.578 18.33 13.333C14.403 11.706 11.5055 8.641 10 5C13.68 1.32 18.506 0 23.3335 0C31.865 8.5335 40 20.319 40 33.3335C32.649 40.685 21.5265 41.937 12.871 37.129L10 40H5.2865L12.412 32.8745C15.726 35.3225 19.707 36.6665 23.906 36.6665C28.632 36.6665 33.0995 34.99 36.6315 31.9205C36.2165 23.6215 32.215 15.9995 27.513 9.808L30.6015 28.3335H23.62L22.6435 27.3585C21.0745 25.7895 19.0125 25.005 16.95 25.005C14.8895 25.005 12.8275 25.7895 11.2585 27.3585L8.9015 25C9.507 24.396 10.166 23.8805 10.8595 23.441C8.413 21.001 4.66 20.106 1.2745 21.5075L0 22.0345V18.426C5.1025 16.3165 10.801 17.9485 14.095 22.0425ZM14.2025 5.83C15.226 7.365 16.587 8.6375 18.1965 9.5605C18.727 9.118 19.145 8.548 19.417 7.8905L21.2525 3.4585C18.529 3.7255 16.156 4.502 14.2025 5.83Z" fill="black" fill-opacity="0.7"/>
</svg>
