<svg width="42" height="42" viewBox="0 0 42 42" fill="none" xmlns="http://www.w3.org/2000/svg">
<path d="M35.1935 5.06752C35.5498 5.06752 35.8386 4.76398 35.8386 4.38955C35.8386 4.01512 35.5498 3.71158 35.1935 3.71158C34.8372 3.71158 34.5483 4.01512 34.5483 4.38955C34.5483 4.76398 34.8372 5.06752 35.1935 5.06752Z" fill="black" fill-opacity="0.7"/>
<path d="M35.1935 5.21752C35.6396 5.21752 35.9886 4.83973 35.9886 4.38955C35.9886 3.93937 35.6396 3.56158 35.1935 3.56158C34.7474 3.56158 34.3983 3.93937 34.3983 4.38955C34.3983 4.83973 34.7474 5.21752 35.1935 5.21752Z" stroke="black" stroke-opacity="0.7" stroke-width="0.3"/>
<path d="M40.954 11.5957C39.668 8.21772 34.4716 7.82907 33.2059 7.78551C30.6173 5.13447 28.2554 4.14938 27.3419 3.8448L26.7874 1.5136C26.7008 1.14953 26.3495 0.930371 26.0048 1.02037C25.6592 1.11105 25.4492 1.47919 25.5355 1.84207L26.1806 4.55396C26.2398 4.80362 26.4279 4.99549 26.6668 5.05193C26.6939 5.05786 29.4219 5.72397 32.4794 8.93705C32.6001 9.06417 32.7643 9.13569 32.9352 9.13569C34.5191 9.13773 38.8325 9.674 39.7556 12.0991C39.8567 12.3645 40.099 12.5255 40.3551 12.5255C40.4348 12.5255 40.5157 12.5103 40.5945 12.4772C40.9253 12.3379 41.0862 11.9432 40.954 11.5957Z" fill="black" fill-opacity="0.7"/>
<path d="M26.0347 4.58856L25.3896 1.87679L25.3896 1.87677C25.2858 1.44055 25.5365 0.988156 25.9668 0.875282L25.9669 0.875238C26.3985 0.762549 26.8286 1.0386 26.9333 1.47888L26.9333 1.47889L27.4687 3.72942M26.0347 4.58856L27.3419 3.8448M26.0347 4.58856C26.1063 4.89071 26.3355 5.12778 26.6323 5.19791L26.6323 5.19793L26.6347 5.19846L26.6347 5.19846C26.6383 5.19934 27.3134 5.36317 28.3661 5.92419C29.4207 6.48617 30.8539 7.44647 32.3707 9.04038C32.5188 9.19642 32.7219 9.28564 32.935 9.28569C33.7151 9.28669 35.1739 9.41985 36.5482 9.85184C37.9314 10.2866 39.1799 11.0083 39.6154 12.1525L39.6154 12.1525C39.7382 12.4747 40.0353 12.6755 40.3551 12.6755C40.4541 12.6755 40.5549 12.6565 40.6525 12.6155L40.6527 12.6155C41.0623 12.443 41.2535 11.9609 41.0942 11.5424L40.954 11.5957L41.0942 11.5423C40.4267 9.78915 38.7514 8.82715 37.1186 8.29752C35.5304 7.78234 33.9477 7.66449 33.2712 7.63782M26.0347 4.58856L33.2059 7.78551M27.4687 3.72942C27.4412 3.71992 27.4147 3.71096 27.3894 3.7025L27.3419 3.8448M27.4687 3.72942L27.4878 3.81009L27.3419 3.8448M27.4687 3.72942C28.446 4.06688 30.7506 5.07127 33.2712 7.63782M27.3419 3.8448C28.2554 4.14938 30.6173 5.13447 33.2059 7.78551M33.2712 7.63782C33.2502 7.637 33.2302 7.63626 33.211 7.6356L33.2059 7.78551M33.2712 7.63782C33.2852 7.65207 33.2992 7.66637 33.3132 7.68072L33.2059 7.78551" stroke="black" stroke-opacity="0.7" stroke-width="0.3"/>
<path d="M9.84339 8.93669C12.8798 5.74548 15.3281 5.05293 15.3502 5.047C15.5812 4.98683 15.7617 4.79666 15.8196 4.55378L16.4647 1.84189C16.551 1.47901 16.3409 1.11104 15.9954 1.02019C15.6507 0.930188 15.2996 1.14934 15.2128 1.51341L14.6549 3.85852C13.8095 4.17496 11.6645 5.16751 9.11727 7.78465C7.81342 7.82635 2.33657 8.20635 1.04627 11.5955C0.914011 11.9432 1.07498 12.3377 1.40578 12.4767C1.48449 12.5098 1.56545 12.525 1.64513 12.525C1.90125 12.525 2.14351 12.3642 2.24464 12.0986C3.16801 9.6728 7.71391 9.13703 9.38759 9.13517C9.5584 9.13534 9.72275 9.06381 9.84339 8.93669Z" fill="black" fill-opacity="0.7"/>
<path d="M15.9655 4.58849L15.9655 4.58856C15.8956 4.88168 15.6765 5.11663 15.389 5.19191C15.3684 5.19775 12.9537 5.8855 9.95219 9.03995L15.9655 4.58849ZM15.9655 4.58849L16.6107 1.87661L16.6107 1.87659M15.9655 4.58849L16.6107 1.87659M16.6107 1.87659C16.7144 1.44027 16.4635 0.988173 16.0335 0.875121L16.0333 0.875055M16.6107 1.87659L16.0333 0.875055M16.0333 0.875055C15.6017 0.762354 15.1718 1.03846 15.0669 1.47864L15.0669 1.4787M16.0333 0.875055L15.0669 1.4787M15.0669 1.4787L14.5274 3.74657C13.6226 4.09659 11.5264 5.10736 9.05196 7.63681C8.35479 7.66234 6.69433 7.77737 5.03236 8.29148C3.32642 8.8192 1.57663 9.78087 0.906082 11.5422L0.90607 11.5422M15.0669 1.4787L0.90607 11.5422M0.90607 11.5422C0.746802 11.9608 0.93792 12.4429 1.34768 12.615L1.3477 12.615M0.90607 11.5422L1.3477 12.615M1.3477 12.615C1.44534 12.656 1.5461 12.675 1.64513 12.675C1.96488 12.675 2.26203 12.4744 2.38482 12.152L2.38482 12.1519M1.3477 12.615L2.38482 12.1519M2.38482 12.1519C2.81949 11.01 4.12257 10.2872 5.57777 9.85161M2.38482 12.1519L5.57777 9.85161M5.57777 9.85161C7.02196 9.41927 8.56183 9.28611 9.3876 9.28517L5.57777 9.85161Z" stroke="black" stroke-opacity="0.7" stroke-width="0.3"/>
<path d="M36.0277 19.5035L33.6361 22.0168H24.6972C23.8951 22.0168 23.1656 21.5275 22.8266 20.7668L21.6198 16.4037C21.5395 16.1144 21.2873 15.915 21.0002 15.915C20.7131 15.915 20.4608 16.1144 20.3805 16.4037L19.1737 20.7668C18.8347 21.5275 18.1052 22.0168 17.3031 22.0168H9.00937L6.61779 19.5035C6.36586 19.2388 5.95748 19.2388 5.70555 19.5035C5.45362 19.7683 5.45362 20.1974 5.70555 20.4622L8.28616 23.1741C8.40712 23.3012 8.57131 23.3727 8.74228 23.3727H17.3031C18.6281 23.3727 19.8318 22.5503 20.3698 21.2786C20.3815 21.2508 20.3916 21.2217 20.3998 21.1925L21.0002 19.0215L21.6006 21.1925C21.6089 21.2217 21.6189 21.2508 21.6306 21.2786C22.1687 22.5505 23.3724 23.3727 24.6974 23.3727H33.9032C34.0743 23.3727 34.2383 23.3012 34.3593 23.1741L36.9399 20.4622C37.1919 20.1974 37.1919 19.7683 36.9399 19.5035C36.688 19.2388 36.2796 19.2386 36.0277 19.5035Z" fill="black" fill-opacity="0.7"/>
<path d="M21.7644 16.3636L21.7644 16.3637L22.9681 20.7158C23.2863 21.4196 23.9611 21.8668 24.6972 21.8668H33.5718L35.919 19.4002C35.919 19.4002 35.919 19.4002 35.919 19.4001C36.2301 19.073 36.7376 19.0733 37.0486 19.4001C37.3556 19.7228 37.3556 20.2429 37.0486 20.5656L34.468 23.2775C34.3196 23.4334 34.1166 23.5227 33.9032 23.5227H24.6974C23.3089 23.5227 22.0527 22.6614 21.4925 21.3371L21.7644 16.3636ZM21.7644 16.3636C21.6672 16.0137 21.3591 15.765 21.0002 15.765C20.6412 15.765 20.3331 16.0137 20.236 16.3636L20.2359 16.3637M21.7644 16.3636L20.2359 16.3637M20.2359 16.3637L19.0322 20.7158C18.714 21.4196 18.0392 21.8668 17.3031 21.8668H9.07369L6.72646 19.4001C6.4154 19.0733 5.90794 19.0733 5.59689 19.4001C5.28984 19.7228 5.28984 20.2429 5.59689 20.5656L8.17749 23.2775C8.32592 23.4335 8.52902 23.5227 8.74228 23.5227H17.3031C18.6917 23.5227 19.9478 22.6612 20.508 21.3371L20.5083 21.3365M20.2359 16.3637L20.5083 21.3365M20.5083 21.3365C20.5222 21.3031 20.5343 21.2682 20.5442 21.2333L20.5444 21.2325M20.5083 21.3365L20.5444 21.2325M20.5444 21.2325L21.0002 19.5843L20.5444 21.2325Z" stroke="black" stroke-opacity="0.7" stroke-width="0.3"/>
<path d="M11.2897 26.9772C11.3465 26.7977 11.3297 26.6018 11.2431 26.4363C11.1568 26.2707 11.0084 26.1509 10.8342 26.1053C10.2394 25.949 8.44734 25.3048 8.02896 24.4256C7.88945 24.1324 7.56897 23.9853 7.27075 24.078C6.97123 24.17 6.77737 24.4746 6.81027 24.8004C6.83446 25.0401 7.42268 30.685 9.25475 34.1615L10.6776 38.4041V40.322C10.6776 40.6968 10.9665 41 11.3228 41C11.6791 41 11.9679 40.6968 11.9679 40.322V38.2881C11.9679 38.2113 11.9557 38.1352 11.9313 38.063L10.4536 33.6562C10.441 33.6191 10.4259 33.5833 10.4076 33.5496C9.30475 31.4845 8.66814 28.4436 8.35089 26.507C8.90975 26.846 9.49749 27.0857 9.92442 27.2346C9.69571 29.4228 11.3728 31.8043 11.452 31.9149C11.6652 32.2154 12.0697 32.2757 12.3552 32.0506C12.6403 31.8262 12.6979 31.4011 12.4841 31.1018C12.0023 30.4265 10.8481 28.3689 11.2897 26.9772Z" fill="black" fill-opacity="0.7"/>
<path d="M11.4327 27.0224L11.4327 27.0226C11.2279 27.6681 11.3902 28.4897 11.6808 29.2549C11.9693 30.0141 12.3717 30.6861 12.6062 31.0147C12.8654 31.3776 12.7976 31.8933 12.448 32.1685C12.0939 32.4476 11.5918 32.3708 11.3298 32.0019C11.2858 31.9405 10.8416 31.3093 10.4361 30.4159C10.0455 29.5551 9.68277 28.4334 9.76467 27.337C9.41793 27.2113 8.98571 27.0321 8.55131 26.7952C8.88362 28.7319 9.50678 31.5442 10.5398 33.4787C10.5624 33.5206 10.5808 33.5642 10.5957 33.6081L10.5958 33.6085L12.0735 38.0151C12.0735 38.0152 12.0735 38.0153 12.0735 38.0154C12.1032 38.1033 12.1179 38.1955 12.1179 38.2881V40.322C12.1179 40.7726 11.7688 41.15 11.3228 41.15C10.8768 41.15 10.5276 40.7726 10.5276 40.322V38.4285L9.11638 34.2206C8.1933 32.4644 7.5866 30.1725 7.20753 28.2968C6.82711 26.4145 6.67341 24.9381 6.66103 24.8155C6.62143 24.4234 6.85426 24.0491 7.22669 23.9346L7.27075 24.078L7.22622 23.9348C7.60002 23.8186 7.99484 24.0048 8.16441 24.3612M11.4327 27.0224L8.02896 24.4256M11.4327 27.0224C11.5014 26.8053 11.4814 26.5681 11.3761 26.3669M11.4327 27.0224L11.3761 26.3669M8.16441 24.3612L8.02896 24.4256M8.16441 24.3612C8.16441 24.3612 8.16441 24.3612 8.16441 24.3612L8.02896 24.4256M8.16441 24.3612C8.25514 24.5519 8.42601 24.74 8.6531 24.9193C8.87883 25.0975 9.15127 25.2602 9.4331 25.4027C9.99727 25.6879 10.5839 25.8845 10.8724 25.9602M8.02896 24.4256C8.44734 25.3048 10.2394 25.949 10.8342 26.1053M10.8724 25.9602C10.8723 25.9602 10.8723 25.9602 10.8722 25.9602L10.8342 26.1053M10.8724 25.9602C11.0889 26.017 11.2709 26.1652 11.3761 26.3669M10.8724 25.9602L10.8342 26.1053M10.8342 26.1053L11.3761 26.3669M11.3761 26.3669C11.3761 26.3669 11.3761 26.367 11.3761 26.367L11.2431 26.4363L11.376 26.3668C11.376 26.3668 11.376 26.3668 11.3761 26.3669Z" stroke="black" stroke-opacity="0.7" stroke-width="0.3"/>
<path d="M35.3922 24.0837C35.0892 23.9799 34.759 24.1254 34.6161 24.4254C34.2697 25.1538 32.4073 25.8416 31.1954 26.0978C31.0143 26.1363 30.857 26.2541 30.7644 26.4222C30.6715 26.5904 30.6517 26.7924 30.7102 26.977C31.1497 28.3621 29.9967 30.4245 29.5154 31.1025C29.3025 31.4018 29.3607 31.8267 29.6459 32.0506C29.9314 32.2757 30.3347 32.2148 30.5481 31.9148C30.6265 31.805 32.2842 29.4513 32.0797 27.2743C32.6515 27.1194 33.4702 26.8551 34.2065 26.4605C33.7957 28.4045 33.0268 31.4679 31.915 33.5494C31.9041 33.5699 31.8939 33.5918 31.8847 33.6137L30.0844 38.0205C30.0501 38.1052 30.0322 38.1959 30.0322 38.2879V40.3218C30.0322 40.6966 30.321 40.9998 30.6773 40.9998C31.0336 40.9998 31.3225 40.6966 31.3225 40.3218V38.4276L33.0573 34.1809C34.8903 30.7241 35.7922 25.078 35.83 24.839C35.8819 24.5082 35.6956 24.1871 35.3922 24.0837Z" fill="black" fill-opacity="0.7"/>
<path d="M34.4807 24.361L34.4807 24.3609C34.6544 23.9963 35.0614 23.8118 35.4408 23.9418C35.8174 24.0703 36.0407 24.4641 35.9782 24.8623L35.9781 24.8624C35.9589 24.9841 35.7233 26.4599 35.2626 28.339C34.8031 30.2132 34.117 32.5002 33.1933 34.2446L31.4725 38.4571V40.3218C31.4725 40.7724 31.1233 41.1498 30.6773 41.1498C30.2313 41.1498 29.8822 40.7724 29.8822 40.3218V38.2879C29.8822 38.1764 29.9039 38.0666 29.9454 37.9641L29.9456 37.9637L31.7459 33.5569L31.7464 33.5555L31.7464 33.5555C31.757 33.5304 31.7691 33.5042 31.7827 33.4788C32.8271 31.5234 33.5696 28.6826 33.9937 26.7369C33.3752 27.0351 32.7314 27.2474 32.2389 27.386C32.307 28.4733 31.9443 29.5816 31.5565 30.432C31.1528 31.3173 30.7134 31.9414 30.6704 32.0018L34.4807 24.361ZM34.4807 24.361C34.4106 24.5084 34.2542 24.6698 34.0194 24.8354C33.7878 24.9988 33.494 25.1565 33.1691 25.3017C32.5193 25.592 31.761 25.8249 31.1643 25.9511L31.1642 25.9511M34.4807 24.361L31.1642 25.9511M31.1642 25.9511C30.9391 25.9989 30.746 26.1448 30.633 26.3499M31.1642 25.9511L30.633 26.3499M30.633 26.3499L30.7644 26.4222L30.633 26.3499ZM29.553 32.1684C29.2036 31.8939 29.135 31.3786 29.3931 31.0156L29.553 32.1684ZM29.553 32.1684C29.9074 32.4478 30.4083 32.37 30.6702 32.002L29.553 32.1684Z" stroke="black" stroke-opacity="0.7" stroke-width="0.3"/>
<path d="M20.9999 30.8304C21.3561 30.8304 21.645 30.5272 21.645 30.1524V27.318L24.2895 26.7626H26.8062C27.1625 26.7626 27.4514 26.4594 27.4514 26.0846C27.4514 25.7099 27.1625 25.4066 26.8062 25.4066H24.2256C24.183 25.4066 24.1409 25.4112 24.099 25.4199L20.9999 26.0712L17.9007 25.4199C17.8588 25.4112 17.8167 25.4066 17.7741 25.4066H15.1935C14.8372 25.4066 14.5483 25.7099 14.5483 26.0846C14.5483 26.4594 14.8372 26.7626 15.1935 26.7626H17.7102L20.3547 27.318V30.1524C20.3547 30.5272 20.6436 30.8304 20.9999 30.8304Z" fill="black" fill-opacity="0.7"/>
<path d="M24.0687 25.273L24.0682 25.2731L20.9999 25.918L17.9316 25.2731L17.931 25.273C17.8798 25.2624 17.8275 25.2566 17.7741 25.2566H15.1935C14.7475 25.2566 14.3983 25.6341 14.3983 26.0846C14.3983 26.5352 14.7475 26.9126 15.1935 26.9126H17.6946L20.2047 27.4398V30.1524C20.2047 30.603 20.5538 30.9804 20.9999 30.9804C21.4459 30.9804 21.795 30.603 21.795 30.1524V27.4398L24.3051 26.9126H26.8062C27.2522 26.9126 27.6014 26.5352 27.6014 26.0846C27.6014 25.6341 27.2522 25.2566 26.8062 25.2566H24.2256C24.1722 25.2566 24.1199 25.2624 24.0687 25.273Z" stroke="black" stroke-opacity="0.7" stroke-width="0.3"/>
<path d="M27.4515 31.5084H24.2257C24.1832 31.5084 24.1411 31.513 24.0991 31.5216L21 32.173L17.9008 31.5216C17.8589 31.513 17.8168 31.5084 17.7742 31.5084H14.5485C14.1922 31.5084 13.9033 31.8116 13.9033 32.1864C13.9033 32.5611 14.1922 32.8643 14.5485 32.8643H17.7104L20.3548 33.4201V37.6101C20.3548 37.9849 20.6437 38.2881 21 38.2881C21.3563 38.2881 21.6451 37.9849 21.6451 37.6101V33.4198L24.2896 32.8643H27.4515C27.8078 32.8643 28.0967 32.5611 28.0967 32.1864C28.0967 31.8116 27.8078 31.5084 27.4515 31.5084Z" fill="black" fill-opacity="0.7"/>
<path d="M24.0689 31.3747L24.0683 31.3748L21 32.0197L17.9317 31.3748L17.9311 31.3747C17.8799 31.3641 17.8277 31.3584 17.7742 31.3584H14.5485C14.1025 31.3584 13.7533 31.7358 13.7533 32.1864C13.7533 32.6369 14.1025 33.0143 14.5485 33.0143H17.6948L20.2048 33.5419V37.6101C20.2048 38.0607 20.554 38.4381 21 38.4381C21.446 38.4381 21.7951 38.0607 21.7951 37.6101V33.5415L24.3052 33.0143H27.4515C27.8975 33.0143 28.2467 32.6369 28.2467 32.1864C28.2467 31.7358 27.8975 31.3584 27.4515 31.3584H24.2257C24.1723 31.3584 24.1201 31.3641 24.0689 31.3747Z" stroke="black" stroke-opacity="0.7" stroke-width="0.3"/>
<path d="M22.9482 11.9803C23.0093 12.3026 23.279 12.5252 23.5801 12.5252C23.6221 12.5252 23.6645 12.5213 23.7074 12.512L30.1589 11.156C30.5082 11.0825 30.7347 10.7257 30.6649 10.3582C30.5952 9.99076 30.2576 9.75178 29.9057 9.82652L23.4542 11.1825C23.1048 11.256 22.8784 11.6128 22.9482 11.9803Z" fill="black" fill-opacity="0.7"/>
<path d="M22.8008 12.0082C22.8747 12.3979 23.2034 12.6752 23.5801 12.6752C23.6313 12.6752 23.6843 12.6704 23.7387 12.6587C23.7389 12.6586 23.7391 12.6586 23.7392 12.6585L30.1897 11.3028L30.1898 11.3028C30.6251 11.2111 30.8961 10.7717 30.8122 10.3303M22.8008 12.0082L22.9482 11.9803M22.8008 12.0082C22.8008 12.0082 22.8008 12.0083 22.8008 12.0083L22.9482 11.9803M22.8008 12.0082C22.717 11.5668 22.9879 11.1274 23.4232 11.0357L23.4233 11.0357L29.8745 9.6798C29.8746 9.67978 29.8746 9.67977 29.8747 9.67975C30.3159 9.58617 30.7283 9.88747 30.8122 10.3303M22.9482 11.9803C23.0093 12.3026 23.279 12.5252 23.5801 12.5252C23.6221 12.5252 23.6645 12.5213 23.7074 12.512L23.4542 11.1825C23.1048 11.256 22.8784 11.6128 22.9482 11.9803ZM30.8122 10.3303L30.6649 10.3582M30.8122 10.3303C30.8122 10.3303 30.8122 10.3302 30.8122 10.3302L30.6649 10.3582M30.6649 10.3582C30.5952 9.99076 30.2576 9.75178 29.9057 9.82652L30.1589 11.156C30.5082 11.0825 30.7347 10.7257 30.6649 10.3582Z" stroke="black" stroke-opacity="0.7" stroke-width="0.3"/>
<path d="M11.4491 9.82653C11.0972 9.75111 10.7596 9.99077 10.6899 10.3582C10.6199 10.7257 10.8465 11.0825 11.1959 11.156L17.6474 12.512C17.6903 12.5213 17.7327 12.5252 17.7747 12.5252C18.0758 12.5252 18.3455 12.3028 18.4066 11.9803C18.4766 11.6128 18.25 11.256 17.9006 11.1825L11.4491 9.82653Z" fill="black" fill-opacity="0.7"/>
<path d="M11.165 11.3028L11.165 11.3028C10.7297 11.2112 10.4585 10.7717 10.5426 10.3302M11.165 11.3028L18.4066 11.9803M11.165 11.3028L17.6156 12.6586L11.165 11.3028ZM10.5426 10.3302L10.6899 10.3582L10.5426 10.3303C10.5426 10.3302 10.5426 10.3302 10.5426 10.3302ZM10.5426 10.3302C10.6265 9.88775 11.0387 9.58535 11.4802 9.6798C11.4804 9.67982 11.4805 9.67984 11.4806 9.67986L17.9315 11.0357L17.9315 11.0357C18.3668 11.1274 18.6381 11.5668 18.5539 12.0083M18.5539 12.0083L18.4066 11.9803M18.5539 12.0083C18.554 12.0083 18.554 12.0083 18.554 12.0082L18.4066 11.9803M18.5539 12.0083C18.48 12.3982 18.1513 12.6752 17.7747 12.6752C17.7235 12.6752 17.6705 12.6705 17.6161 12.6587L17.6166 12.6588L17.6474 12.512C17.6903 12.5213 17.7327 12.5252 17.7747 12.5252C18.0758 12.5252 18.3455 12.3028 18.4066 11.9803" stroke="black" stroke-opacity="0.7" stroke-width="0.3"/>
<path d="M19.9721 7.79261C20.1684 8.20244 20.5621 8.45736 21 8.45736C21.4379 8.45736 21.8316 8.20244 22.0275 7.79329L24.8019 2.00544C24.9622 1.67103 24.8339 1.26323 24.5159 1.09442C24.197 0.92696 23.8099 1.06137 23.6496 1.39493L21 6.9226L18.3503 1.39493C18.1903 1.0612 17.8023 0.926791 17.4841 1.09442C17.1658 1.26323 17.0376 1.67103 17.1981 2.00544L19.9721 7.79261Z" fill="black" fill-opacity="0.7"/>
<path d="M23.5143 1.33009L21 6.57558L18.4856 1.33009L18.4856 1.33008C18.2906 0.923392 17.8113 0.752524 17.4142 0.961706L17.4142 0.961705L17.4138 0.96191C17.0212 1.17018 16.8692 1.66671 17.0628 2.07028C17.0628 2.0703 17.0629 2.07032 17.0629 2.07034L19.8368 7.8574C20.0568 8.31669 20.5015 8.60736 21 8.60736C21.4984 8.60736 21.9431 8.31674 22.1628 7.85808L24.9371 2.07029C25.1306 1.66675 24.9786 1.17021 24.5862 0.961925L24.5862 0.961924L24.5856 0.961619C24.1879 0.752754 23.7097 0.923605 23.5144 1.32995L23.5143 1.33009Z" stroke="black" stroke-opacity="0.7" stroke-width="0.3"/>
<path d="M21.0001 40.322C21.3564 40.322 21.6453 40.0185 21.6453 39.6441C21.6453 39.2696 21.3564 38.9661 21.0001 38.9661C20.6438 38.9661 20.355 39.2696 20.355 39.6441C20.355 40.0185 20.6438 40.322 21.0001 40.322Z" fill="black" fill-opacity="0.7"/>
<path d="M21.0001 40.472C21.4462 40.472 21.7953 40.0942 21.7953 39.6441C21.7953 39.1939 21.4462 38.8161 21.0001 38.8161C20.5541 38.8161 20.205 39.1939 20.205 39.6441C20.205 40.0942 20.5541 40.472 21.0001 40.472Z" stroke="black" stroke-opacity="0.7" stroke-width="0.3"/>
</svg>
