<svg width="27" height="42" viewBox="0 0 27 42" fill="none" xmlns="http://www.w3.org/2000/svg">
<mask id="path-1-outside-1" maskUnits="userSpaceOnUse" x="0" y="0" width="27" height="42" fill="black">
<rect fill="white" width="27" height="42"/>
<path d="M25.4452 38.4445C25.4018 38.3867 25.333 38.3465 25.2534 38.3233C23.4013 37.8332 22.1578 37.049 21.558 35.9882C20.6345 34.3578 21.558 32.592 21.5744 32.5631C24.6047 25.9266 22.3949 19.7489 22.384 19.7373C22.1528 18.0191 22.9823 16.9992 23.0146 16.9581C26.8293 10.8894 20.8876 1.4015 20.6312 1L19.9935 1.25496C20.0116 1.28313 20.4561 2.00161 21.0268 3.13271H5.97277C6.54019 1.99901 6.98654 1.27887 7.00286 1.25496L6.36658 1.00024C6.11106 1.40008 0.167314 10.8883 4.0111 16.9862C4.01823 16.9964 4.8477 18.0148 4.62542 19.6869C4.60287 19.7475 2.39548 25.9221 5.43235 32.5731C5.44125 32.592 6.36302 34.3434 5.44125 35.9822C4.84296 37.0459 3.59978 37.8302 1.74406 38.3202C1.66631 38.3462 1.59746 38.3839 1.55324 38.4414C1.4648 38.5539 0.705658 39.5659 1.12589 40.3154C1.26329 40.5604 1.58321 40.8719 2.33048 40.9785C2.41002 40.9901 4.27226 41.2583 6.6313 39.0297C6.82361 38.9348 7.77447 38.5079 9.6382 38.2255C9.69874 38.217 10.249 38.1391 10.5635 37.6806C10.9131 37.1704 10.8075 36.415 10.2303 35.4172C10.2285 35.4117 9.9418 35.0121 9.9599 34.2496C9.98067 33.4454 10.0638 33.1801 10.1115 33.0934C10.3321 32.6914 13.2832 23.0551 10.8743 20.5403C10.8707 20.5374 10.5653 20.1165 11.093 19.1277C11.1743 19.0375 12.7445 17.2485 13.498 14.0455C14.2515 17.2471 15.8149 19.0304 15.8689 19.0763C16.4254 20.1021 16.1363 20.5258 16.1381 20.5258C13.7363 23.0361 16.6675 32.6855 16.888 33.0965C16.9349 33.1843 17.018 33.4424 17.0379 34.2496C17.0563 35.0121 16.7687 35.4115 16.7489 35.4446C16.1903 36.415 16.0856 37.1716 16.4343 37.6862C16.7489 38.146 17.2997 38.221 17.343 38.2267C19.2168 38.5122 20.1709 38.9345 20.3665 39.0309C22.2385 40.8014 23.7963 41 24.3961 41C24.5516 41 24.6439 40.9856 24.662 40.9827C25.4173 40.8762 25.7407 40.5618 25.8746 40.3168C26.2942 39.5659 25.5336 38.5567 25.4452 38.4445ZM21.3123 3.70584C21.5907 4.29056 21.8886 4.96643 22.1724 5.69225L13.4947 11.3248L5.05307 6.17234H9.63849C9.83466 6.17234 9.99373 6.04403 9.99373 5.88755C9.99373 5.73107 9.83466 5.60348 9.63849 5.60348H4.87679C4.95988 5.38663 5.04951 5.18044 5.13617 4.97495C5.15249 4.97495 5.16406 4.98939 5.18217 4.98939H13.0558C13.2526 4.98939 13.4117 4.85967 13.4117 4.70461C13.4117 4.54955 13.2526 4.41982 13.0558 4.41982H5.37477C5.48398 4.17764 5.59349 3.93263 5.69914 3.71128H21.3126V3.70584H21.3123ZM10.4787 18.85C9.74593 20.1994 10.2338 20.799 10.297 20.8696C12.4139 23.0809 9.66639 32.4462 9.46221 32.8643C9.37704 33.0184 9.27317 33.3212 9.2515 34.2394C9.22895 35.1719 9.6014 35.6825 9.60466 35.6825C10.0466 36.4507 10.1694 37.0665 9.94892 37.4007C9.80261 37.6214 9.54501 37.6661 9.52513 37.6661C7.25096 38.0148 6.24075 38.5569 6.19653 38.5799C6.17042 38.5943 6.14608 38.6116 6.12412 38.6289C4.0479 40.6153 2.4857 40.4278 2.46759 40.425C2.10256 40.3731 1.87761 40.2635 1.78086 40.0876C1.57757 39.7214 1.89928 39.1189 2.099 38.8294C4.08144 38.2816 5.42493 37.4007 6.09444 36.2159C7.14353 34.3505 6.13332 32.432 6.09622 32.3655C3.15076 25.9105 5.2893 19.9082 5.32462 19.7993C5.58934 17.8612 4.64323 16.7173 4.62898 16.6993C2.74329 13.7075 3.42083 9.73254 4.52155 6.55987L13.1262 11.8184C12.7602 16.2107 10.5339 18.7738 10.4787 18.85ZM25.2229 40.0848C25.1252 40.2607 24.8994 40.3703 24.5308 40.4252C24.5163 40.4252 22.9532 40.6156 20.877 38.632C20.8571 38.6119 20.8336 38.5946 20.8028 38.5801C20.763 38.5569 19.7492 38.0148 17.4596 37.6664C17.4578 37.6664 17.2032 37.6259 17.0569 37.4126C16.8275 37.0752 16.9465 36.4612 17.3765 35.7088C17.3928 35.6887 17.7703 35.1812 17.7469 34.2413C17.7273 33.3162 17.624 33.0191 17.5392 32.8751C17.3261 32.4341 14.5504 23.1247 16.7079 20.8674C16.7658 20.8026 17.2519 20.2029 16.4838 18.8017C16.4622 18.7759 14.2376 16.2128 13.8708 11.817L22.3804 6.28952C23.5423 9.50102 24.3248 13.6123 22.3967 16.6747C22.357 16.7237 21.412 17.8676 21.6848 19.8519C21.7082 19.9125 23.8497 25.9081 20.9078 32.3532C20.8663 32.4381 19.8543 34.3571 20.9022 36.2195C21.569 37.4086 22.9134 38.2864 24.8976 38.8341C25.0962 39.1133 25.4235 39.7273 25.2229 40.0848ZM8.14662 18.9698C8.02465 18.9698 7.90446 18.9179 7.83739 18.8263C4.0571 13.6369 6.50755 10.5976 6.61053 10.4721C6.72182 10.3357 6.94024 10.3064 7.10495 10.3907C7.26758 10.4794 7.31447 10.6553 7.20704 10.7862C7.18271 10.8158 4.9121 13.6793 8.45586 18.5415C8.55439 18.677 8.49652 18.8514 8.32676 18.9314C8.27038 18.957 8.21191 18.9698 8.14662 18.9698ZM18.8491 18.9303C18.6776 18.8502 18.6197 18.6758 18.7191 18.5404C22.2626 13.6781 19.9914 10.8146 19.9697 10.785C19.8614 10.6539 19.9065 10.478 20.0709 10.3892C20.2374 10.3035 20.4541 10.3374 20.5659 10.4707C20.6725 10.5961 23.1211 13.6384 19.3409 18.8249C19.2756 18.9165 19.1548 18.9684 19.0319 18.9684C18.9649 18.9698 18.9034 18.957 18.8491 18.9303ZM19.7507 29.9193C19.8466 30.0607 19.7851 30.2306 19.6133 30.3087C19.5575 30.3334 19.4976 30.3433 19.4382 30.3433C19.3153 30.3433 19.1925 30.2915 19.1272 30.1963C16.0823 25.8258 18.1642 23.3607 18.2547 23.2598C18.3683 23.127 18.5906 23.1043 18.7515 23.1876C18.9105 23.2785 18.9503 23.4558 18.8438 23.5856C18.8221 23.6085 16.9373 25.8831 19.7507 29.9193ZM9.36843 23.2596C9.45687 23.3604 11.5405 25.8255 8.49652 30.1961C8.42945 30.287 8.30955 30.3431 8.18579 30.3431C8.12703 30.3431 8.06738 30.3286 8.01397 30.3085C7.84124 30.2306 7.77892 30.0604 7.873 29.9191C10.6873 25.8828 8.8019 23.6083 8.78379 23.5851C8.6725 23.4554 8.71316 23.2797 8.87401 23.1872C9.0313 23.1041 9.25358 23.127 9.36843 23.2596Z"/>
</mask>
<path d="M25.4452 38.4445C25.4018 38.3867 25.333 38.3465 25.2534 38.3233C23.4013 37.8332 22.1578 37.049 21.558 35.9882C20.6345 34.3578 21.558 32.592 21.5744 32.5631C24.6047 25.9266 22.3949 19.7489 22.384 19.7373C22.1528 18.0191 22.9823 16.9992 23.0146 16.9581C26.8293 10.8894 20.8876 1.4015 20.6312 1L19.9935 1.25496C20.0116 1.28313 20.4561 2.00161 21.0268 3.13271H5.97277C6.54019 1.99901 6.98654 1.27887 7.00286 1.25496L6.36658 1.00024C6.11106 1.40008 0.167314 10.8883 4.0111 16.9862C4.01823 16.9964 4.8477 18.0148 4.62542 19.6869C4.60287 19.7475 2.39548 25.9221 5.43235 32.5731C5.44125 32.592 6.36302 34.3434 5.44125 35.9822C4.84296 37.0459 3.59978 37.8302 1.74406 38.3202C1.66631 38.3462 1.59746 38.3839 1.55324 38.4414C1.4648 38.5539 0.705658 39.5659 1.12589 40.3154C1.26329 40.5604 1.58321 40.8719 2.33048 40.9785C2.41002 40.9901 4.27226 41.2583 6.6313 39.0297C6.82361 38.9348 7.77447 38.5079 9.6382 38.2255C9.69874 38.217 10.249 38.1391 10.5635 37.6806C10.9131 37.1704 10.8075 36.415 10.2303 35.4172C10.2285 35.4117 9.9418 35.0121 9.9599 34.2496C9.98067 33.4454 10.0638 33.1801 10.1115 33.0934C10.3321 32.6914 13.2832 23.0551 10.8743 20.5403C10.8707 20.5374 10.5653 20.1165 11.093 19.1277C11.1743 19.0375 12.7445 17.2485 13.498 14.0455C14.2515 17.2471 15.8149 19.0304 15.8689 19.0763C16.4254 20.1021 16.1363 20.5258 16.1381 20.5258C13.7363 23.0361 16.6675 32.6855 16.888 33.0965C16.9349 33.1843 17.018 33.4424 17.0379 34.2496C17.0563 35.0121 16.7687 35.4115 16.7489 35.4446C16.1903 36.415 16.0856 37.1716 16.4343 37.6862C16.7489 38.146 17.2997 38.221 17.343 38.2267C19.2168 38.5122 20.1709 38.9345 20.3665 39.0309C22.2385 40.8014 23.7963 41 24.3961 41C24.5516 41 24.6439 40.9856 24.662 40.9827C25.4173 40.8762 25.7407 40.5618 25.8746 40.3168C26.2942 39.5659 25.5336 38.5567 25.4452 38.4445ZM21.3123 3.70584C21.5907 4.29056 21.8886 4.96643 22.1724 5.69225L13.4947 11.3248L5.05307 6.17234H9.63849C9.83466 6.17234 9.99373 6.04403 9.99373 5.88755C9.99373 5.73107 9.83466 5.60348 9.63849 5.60348H4.87679C4.95988 5.38663 5.04951 5.18044 5.13617 4.97495C5.15249 4.97495 5.16406 4.98939 5.18217 4.98939H13.0558C13.2526 4.98939 13.4117 4.85967 13.4117 4.70461C13.4117 4.54955 13.2526 4.41982 13.0558 4.41982H5.37477C5.48398 4.17764 5.59349 3.93263 5.69914 3.71128H21.3126V3.70584H21.3123ZM10.4787 18.85C9.74593 20.1994 10.2338 20.799 10.297 20.8696C12.4139 23.0809 9.66639 32.4462 9.46221 32.8643C9.37704 33.0184 9.27317 33.3212 9.2515 34.2394C9.22895 35.1719 9.6014 35.6825 9.60466 35.6825C10.0466 36.4507 10.1694 37.0665 9.94892 37.4007C9.80261 37.6214 9.54501 37.6661 9.52513 37.6661C7.25096 38.0148 6.24075 38.5569 6.19653 38.5799C6.17042 38.5943 6.14608 38.6116 6.12412 38.6289C4.0479 40.6153 2.4857 40.4278 2.46759 40.425C2.10256 40.3731 1.87761 40.2635 1.78086 40.0876C1.57757 39.7214 1.89928 39.1189 2.099 38.8294C4.08144 38.2816 5.42493 37.4007 6.09444 36.2159C7.14353 34.3505 6.13332 32.432 6.09622 32.3655C3.15076 25.9105 5.2893 19.9082 5.32462 19.7993C5.58934 17.8612 4.64323 16.7173 4.62898 16.6993C2.74329 13.7075 3.42083 9.73254 4.52155 6.55987L13.1262 11.8184C12.7602 16.2107 10.5339 18.7738 10.4787 18.85ZM25.2229 40.0848C25.1252 40.2607 24.8994 40.3703 24.5308 40.4252C24.5163 40.4252 22.9532 40.6156 20.877 38.632C20.8571 38.6119 20.8336 38.5946 20.8028 38.5801C20.763 38.5569 19.7492 38.0148 17.4596 37.6664C17.4578 37.6664 17.2032 37.6259 17.0569 37.4126C16.8275 37.0752 16.9465 36.4612 17.3765 35.7088C17.3928 35.6887 17.7703 35.1812 17.7469 34.2413C17.7273 33.3162 17.624 33.0191 17.5392 32.8751C17.3261 32.4341 14.5504 23.1247 16.7079 20.8674C16.7658 20.8026 17.2519 20.2029 16.4838 18.8017C16.4622 18.7759 14.2376 16.2128 13.8708 11.817L22.3804 6.28952C23.5423 9.50102 24.3248 13.6123 22.3967 16.6747C22.357 16.7237 21.412 17.8676 21.6848 19.8519C21.7082 19.9125 23.8497 25.9081 20.9078 32.3532C20.8663 32.4381 19.8543 34.3571 20.9022 36.2195C21.569 37.4086 22.9134 38.2864 24.8976 38.8341C25.0962 39.1133 25.4235 39.7273 25.2229 40.0848ZM8.14662 18.9698C8.02465 18.9698 7.90446 18.9179 7.83739 18.8263C4.0571 13.6369 6.50755 10.5976 6.61053 10.4721C6.72182 10.3357 6.94024 10.3064 7.10495 10.3907C7.26758 10.4794 7.31447 10.6553 7.20704 10.7862C7.18271 10.8158 4.9121 13.6793 8.45586 18.5415C8.55439 18.677 8.49652 18.8514 8.32676 18.9314C8.27038 18.957 8.21191 18.9698 8.14662 18.9698ZM18.8491 18.9303C18.6776 18.8502 18.6197 18.6758 18.7191 18.5404C22.2626 13.6781 19.9914 10.8146 19.9697 10.785C19.8614 10.6539 19.9065 10.478 20.0709 10.3892C20.2374 10.3035 20.4541 10.3374 20.5659 10.4707C20.6725 10.5961 23.1211 13.6384 19.3409 18.8249C19.2756 18.9165 19.1548 18.9684 19.0319 18.9684C18.9649 18.9698 18.9034 18.957 18.8491 18.9303ZM19.7507 29.9193C19.8466 30.0607 19.7851 30.2306 19.6133 30.3087C19.5575 30.3334 19.4976 30.3433 19.4382 30.3433C19.3153 30.3433 19.1925 30.2915 19.1272 30.1963C16.0823 25.8258 18.1642 23.3607 18.2547 23.2598C18.3683 23.127 18.5906 23.1043 18.7515 23.1876C18.9105 23.2785 18.9503 23.4558 18.8438 23.5856C18.8221 23.6085 16.9373 25.8831 19.7507 29.9193ZM9.36843 23.2596C9.45687 23.3604 11.5405 25.8255 8.49652 30.1961C8.42945 30.287 8.30955 30.3431 8.18579 30.3431C8.12703 30.3431 8.06738 30.3286 8.01397 30.3085C7.84124 30.2306 7.77892 30.0604 7.873 29.9191C10.6873 25.8828 8.8019 23.6083 8.78379 23.5851C8.6725 23.4554 8.71316 23.2797 8.87401 23.1872C9.0313 23.1041 9.25358 23.127 9.36843 23.2596Z" fill="black" fill-opacity="0.7"/>
<path d="M25.4452 38.4445C25.4018 38.3867 25.333 38.3465 25.2534 38.3233C23.4013 37.8332 22.1578 37.049 21.558 35.9882C20.6345 34.3578 21.558 32.592 21.5744 32.5631C24.6047 25.9266 22.3949 19.7489 22.384 19.7373C22.1528 18.0191 22.9823 16.9992 23.0146 16.9581C26.8293 10.8894 20.8876 1.4015 20.6312 1L19.9935 1.25496C20.0116 1.28313 20.4561 2.00161 21.0268 3.13271H5.97277C6.54019 1.99901 6.98654 1.27887 7.00286 1.25496L6.36658 1.00024C6.11106 1.40008 0.167314 10.8883 4.0111 16.9862C4.01823 16.9964 4.8477 18.0148 4.62542 19.6869C4.60287 19.7475 2.39548 25.9221 5.43235 32.5731C5.44125 32.592 6.36302 34.3434 5.44125 35.9822C4.84296 37.0459 3.59978 37.8302 1.74406 38.3202C1.66631 38.3462 1.59746 38.3839 1.55324 38.4414C1.4648 38.5539 0.705658 39.5659 1.12589 40.3154C1.26329 40.5604 1.58321 40.8719 2.33048 40.9785C2.41002 40.9901 4.27226 41.2583 6.6313 39.0297C6.82361 38.9348 7.77447 38.5079 9.6382 38.2255C9.69874 38.217 10.249 38.1391 10.5635 37.6806C10.9131 37.1704 10.8075 36.415 10.2303 35.4172C10.2285 35.4117 9.9418 35.0121 9.9599 34.2496C9.98067 33.4454 10.0638 33.1801 10.1115 33.0934C10.3321 32.6914 13.2832 23.0551 10.8743 20.5403C10.8707 20.5374 10.5653 20.1165 11.093 19.1277C11.1743 19.0375 12.7445 17.2485 13.498 14.0455C14.2515 17.2471 15.8149 19.0304 15.8689 19.0763C16.4254 20.1021 16.1363 20.5258 16.1381 20.5258C13.7363 23.0361 16.6675 32.6855 16.888 33.0965C16.9349 33.1843 17.018 33.4424 17.0379 34.2496C17.0563 35.0121 16.7687 35.4115 16.7489 35.4446C16.1903 36.415 16.0856 37.1716 16.4343 37.6862C16.7489 38.146 17.2997 38.221 17.343 38.2267C19.2168 38.5122 20.1709 38.9345 20.3665 39.0309C22.2385 40.8014 23.7963 41 24.3961 41C24.5516 41 24.6439 40.9856 24.662 40.9827C25.4173 40.8762 25.7407 40.5618 25.8746 40.3168C26.2942 39.5659 25.5336 38.5567 25.4452 38.4445ZM21.3123 3.70584C21.5907 4.29056 21.8886 4.96643 22.1724 5.69225L13.4947 11.3248L5.05307 6.17234H9.63849C9.83466 6.17234 9.99373 6.04403 9.99373 5.88755C9.99373 5.73107 9.83466 5.60348 9.63849 5.60348H4.87679C4.95988 5.38663 5.04951 5.18044 5.13617 4.97495C5.15249 4.97495 5.16406 4.98939 5.18217 4.98939H13.0558C13.2526 4.98939 13.4117 4.85967 13.4117 4.70461C13.4117 4.54955 13.2526 4.41982 13.0558 4.41982H5.37477C5.48398 4.17764 5.59349 3.93263 5.69914 3.71128H21.3126V3.70584H21.3123ZM10.4787 18.85C9.74593 20.1994 10.2338 20.799 10.297 20.8696C12.4139 23.0809 9.66639 32.4462 9.46221 32.8643C9.37704 33.0184 9.27317 33.3212 9.2515 34.2394C9.22895 35.1719 9.6014 35.6825 9.60466 35.6825C10.0466 36.4507 10.1694 37.0665 9.94892 37.4007C9.80261 37.6214 9.54501 37.6661 9.52513 37.6661C7.25096 38.0148 6.24075 38.5569 6.19653 38.5799C6.17042 38.5943 6.14608 38.6116 6.12412 38.6289C4.0479 40.6153 2.4857 40.4278 2.46759 40.425C2.10256 40.3731 1.87761 40.2635 1.78086 40.0876C1.57757 39.7214 1.89928 39.1189 2.099 38.8294C4.08144 38.2816 5.42493 37.4007 6.09444 36.2159C7.14353 34.3505 6.13332 32.432 6.09622 32.3655C3.15076 25.9105 5.2893 19.9082 5.32462 19.7993C5.58934 17.8612 4.64323 16.7173 4.62898 16.6993C2.74329 13.7075 3.42083 9.73254 4.52155 6.55987L13.1262 11.8184C12.7602 16.2107 10.5339 18.7738 10.4787 18.85ZM25.2229 40.0848C25.1252 40.2607 24.8994 40.3703 24.5308 40.4252C24.5163 40.4252 22.9532 40.6156 20.877 38.632C20.8571 38.6119 20.8336 38.5946 20.8028 38.5801C20.763 38.5569 19.7492 38.0148 17.4596 37.6664C17.4578 37.6664 17.2032 37.6259 17.0569 37.4126C16.8275 37.0752 16.9465 36.4612 17.3765 35.7088C17.3928 35.6887 17.7703 35.1812 17.7469 34.2413C17.7273 33.3162 17.624 33.0191 17.5392 32.8751C17.3261 32.4341 14.5504 23.1247 16.7079 20.8674C16.7658 20.8026 17.2519 20.2029 16.4838 18.8017C16.4622 18.7759 14.2376 16.2128 13.8708 11.817L22.3804 6.28952C23.5423 9.50102 24.3248 13.6123 22.3967 16.6747C22.357 16.7237 21.412 17.8676 21.6848 19.8519C21.7082 19.9125 23.8497 25.9081 20.9078 32.3532C20.8663 32.4381 19.8543 34.3571 20.9022 36.2195C21.569 37.4086 22.9134 38.2864 24.8976 38.8341C25.0962 39.1133 25.4235 39.7273 25.2229 40.0848ZM8.14662 18.9698C8.02465 18.9698 7.90446 18.9179 7.83739 18.8263C4.0571 13.6369 6.50755 10.5976 6.61053 10.4721C6.72182 10.3357 6.94024 10.3064 7.10495 10.3907C7.26758 10.4794 7.31447 10.6553 7.20704 10.7862C7.18271 10.8158 4.9121 13.6793 8.45586 18.5415C8.55439 18.677 8.49652 18.8514 8.32676 18.9314C8.27038 18.957 8.21191 18.9698 8.14662 18.9698ZM18.8491 18.9303C18.6776 18.8502 18.6197 18.6758 18.7191 18.5404C22.2626 13.6781 19.9914 10.8146 19.9697 10.785C19.8614 10.6539 19.9065 10.478 20.0709 10.3892C20.2374 10.3035 20.4541 10.3374 20.5659 10.4707C20.6725 10.5961 23.1211 13.6384 19.3409 18.8249C19.2756 18.9165 19.1548 18.9684 19.0319 18.9684C18.9649 18.9698 18.9034 18.957 18.8491 18.9303ZM19.7507 29.9193C19.8466 30.0607 19.7851 30.2306 19.6133 30.3087C19.5575 30.3334 19.4976 30.3433 19.4382 30.3433C19.3153 30.3433 19.1925 30.2915 19.1272 30.1963C16.0823 25.8258 18.1642 23.3607 18.2547 23.2598C18.3683 23.127 18.5906 23.1043 18.7515 23.1876C18.9105 23.2785 18.9503 23.4558 18.8438 23.5856C18.8221 23.6085 16.9373 25.8831 19.7507 29.9193ZM9.36843 23.2596C9.45687 23.3604 11.5405 25.8255 8.49652 30.1961C8.42945 30.287 8.30955 30.3431 8.18579 30.3431C8.12703 30.3431 8.06738 30.3286 8.01397 30.3085C7.84124 30.2306 7.77892 30.0604 7.873 29.9191C10.6873 25.8828 8.8019 23.6083 8.78379 23.5851C8.6725 23.4554 8.71316 23.2797 8.87401 23.1872C9.0313 23.1041 9.25358 23.127 9.36843 23.2596Z" stroke="black" stroke-width="0.8" mask="url(#path-1-outside-1)"/>
</svg>
