<svg width="40" height="40" viewBox="0 0 40 40" fill="none" xmlns="http://www.w3.org/2000/svg">
<path d="M37.5 0V1.8475C37.4995 3.73453 36.0968 5.32719 34.225 5.56625L11.7412 8.43625C11.3662 8.49125 10.9913 8.56125 10.6337 8.64625C7.12039 9.46391 4.11492 11.7255 2.35625 14.875C0.440547 18.2391 0.00906251 22.2479 1.165 25.9425L2.405 29.8913C0.827813 33.0278 0.00429688 36.4892 0 40H2.5C2.50398 36.8612 3.24422 33.767 4.66125 30.9663L5.095 30.1113L3.55 25.19C2.60219 22.16 2.95625 18.8724 4.5275 16.1138C5.94383 13.5712 8.36633 11.7438 11.2 11.08C11.4963 11.0125 11.7975 10.955 12.075 10.9125L34.54 8.0475C37.6584 7.64461 39.9945 4.9918 40 1.8475V0H37.5Z" fill="black" fill-opacity="0.7"/>
<path d="M17.5 26.4587V26.25H17.4787C17.3705 24.1527 15.6414 22.5059 13.5413 22.5H11.25V25H13.5413C14.3466 25.0007 14.9993 25.6534 15 26.4587V40H17.5V34.2712C20.032 37.8602 24.149 39.9963 28.5413 40H36.25V37.5H28.5413C22.4465 37.4924 17.5076 32.5535 17.5 26.4587Z" fill="black" fill-opacity="0.7"/>
<path d="M30 30H27.5V32.5H30V30Z" fill="black" fill-opacity="0.7"/>
</svg>
