<svg width="26" height="24" viewBox="0 0 26 24" fill="none" xmlns="http://www.w3.org/2000/svg">
<path d="M22.0625 9.68492C22.9379 9.68487 23.7803 10.0496 24.4179 10.7048C25.0555 11.36 25.4403 12.2563 25.4938 13.2108L25.5 13.4402V22.3162C25.4999 22.5757 25.4097 22.8255 25.2475 23.0151C25.0854 23.2047 24.8634 23.32 24.6264 23.3377C24.3894 23.3554 24.1551 23.2741 23.9709 23.1104C23.7866 22.9466 23.6661 22.7126 23.6338 22.4555L23.625 22.3162V19.2437H2.375V22.3162C2.37499 22.5637 2.29295 22.8028 2.14404 22.9893C1.99514 23.1759 1.78944 23.2972 1.565 23.3308L1.4375 23.3404C1.21095 23.3404 0.992072 23.2507 0.821337 23.0881C0.650601 22.9254 0.53956 22.7007 0.50875 22.4555L0.5 22.3162V13.4402C0.499957 12.4839 0.833865 11.5636 1.43362 10.8671C2.03337 10.1705 2.85378 9.75017 3.7275 9.69175L3.9375 9.68492H22.0625ZM6.4375 0.126099H19.5625C20.4379 0.126051 21.2803 0.490825 21.9179 1.14602C22.5555 1.80121 22.9403 2.69745 22.9938 3.65194L23 3.88135V8.31938H19.25L19.2412 8.15961C19.2083 7.85479 19.0824 7.57098 18.8837 7.35395C18.6851 7.13692 18.4253 6.99933 18.1463 6.96339L18 6.95383H15.5C15.1938 6.95387 14.8983 7.07667 14.6695 7.29892C14.4407 7.52118 14.2946 7.82744 14.2587 8.15961L14.25 8.31938H11.75L11.7413 8.15961C11.7083 7.85479 11.5824 7.57098 11.3837 7.35395C11.1851 7.13692 10.9253 6.99933 10.6462 6.96339L10.5 6.95383H8C7.69383 6.95387 7.39833 7.07667 7.16954 7.29892C6.94074 7.52118 6.79457 7.82744 6.75875 8.15961L6.75 8.31938H3V3.88135C2.99996 2.92508 3.33386 2.00481 3.93362 1.30826C4.53337 0.611703 5.35378 0.191346 6.2275 0.132927L6.4375 0.126099Z" fill="#987BE4"/>
</svg>
